<svg xmlns="http://www.w3.org/2000/svg" width="350.92535" height="135.78125">
  <g fill="none" stroke="#000">
    
    <path d="M48.801174 82.03339l-.988674.0345-.988674-.034-.983858-.1034-.974248-.1718-.959891-.2393-.940859-.3057-.917241-.3706-.889157-.4337-.856739-.4946-.820148-.5532-.779561-.6091-.735176-.6619-.687209-.7117-.635895-.7578-.581483-.8003-.524237-.839-.464437-.8735-.402375-.9037-.338353-.9296-.272682-.951-.205682-.9676-.137681-.9797-.06901-.9869v-.9892l.06901-.9869.137681-.9797.205682-.9676.272682-.951.338353-.9296.402375-.9037.464437-.8735.524237-.839.581483-.8003.635895-.7578.687209-.7117.735176-.6619.779561-.6091.820148-.5532.856739-.4946.889157-.4337.917241-.3706.940859-.3057.959891-.2393.974248-.1718.983858-.1034.988674-.035.988674.034.983858.1034.974248.1718.959891.2393.940859.3057.917241.3706.889157.4337.856739.4946.820148.5532.779561.6091.735176.6619.687209.7117.635895.7578.581483.8003.524237.839.464437.8735.402375.9037.338353.9296.272682.951.205682.9676.137681.9797.06901.9869v.9892l-.06901.9869-.137681.9797-.205682.9676-.272682.951-.338353.9296-.402375.9037-.464437.8735-.524237.839-.581483.8003-.635895.7578-.687209.7117-.735176.6619-.779561.6091-.820148.5532-.856739.4946-.889157.4337-.917241.3706-.940859.3057-.959891.2393-.974248.1718-.983858.1034zm292.706865 19.32846l1.150541-2.0196 1.008469-2.0941-.663006-1.2433-.840259-1.4215-.844916-1.2959-.840267-1.1728-.826548-1.0526-.804025-.9362-.772998-.8239-.733797-.7163-.686777-.6139-.632327-.517-.570853-.4264-.502796-.3422-.42861-.2649-.348781-.195-.263808-.1326-.174205-.078-.08052-.032-.167864-.058-.897622-.3647-.767516-.4038-.635932-.4321-.503555-.4497-.37108-.4565-.239195-.4526-.108588-.438.02006-.4128.508751-1.7327.520048-2.1099.354725-1.7706.174087-.3749.299691-.3373.422125-.2896.540732-.2318.654871-.1642.763915-.087.867254-.0009.964296.094.175701.026.08615.01.190583.012.295211.01.39943-.011.502636-.035.604229-.069.703609-.1122.800189-.164.893384-.2244.982622-.2932 1.067344-.3703 1.147001-.4553 1.221064-.548 1.289017-.6479 1.350368-.7548 1.40464-.8682 1.164857-.7928.08023-2.3229-.08023-2.3229-1.164857-.7928-1.40464-.8682-1.350368-.7548-1.289017-.6479-1.221064-.548-1.147001-.4553-1.067344-.3703-.982622-.2932-.893384-.2244-.800189-.164-.703609-.1122-.604229-.069-.502636-.035-.39943-.011-.295212.01-.190582.012-.08615.01-.175702.026-.964296.094-.867254-.0009-.763915-.087-.654871-.1642-.540732-.2318-.422125-.2896-.299691-.3373-.174087-.3749-.354725-1.7706-.520048-2.1099-.508751-1.7326-.02006-.4129.108588-.438.239195-.4525.37108-.4566.503555-.4497.635932-.4321.767517-.4038.897621-.3647.167864-.058.08052-.032.174207-.078.263806-.1326.348781-.195.42861-.2649.502796-.3422.570853-.4264.632327-.517.686777-.6139.733797-.7163.772998-.8239.804025-.9362.826548-1.0526.840267-1.1728.844916-1.2959.840259-1.4215.663006-1.2433-1.008469-2.0941-1.150541-2.0196-1.399853-.1606-1.647236-.116-1.546466-.041-1.442469.025-1.335849.082-1.227214.1299-1.117173.1681-1.006342.197-.895326.2165-.784738.2267-.675176.2276-.56724.2194-.461514.2022-.358575.1763-.258987.1418-.163299.099-.07205.048-.143287.1051-.810062.5316-.768313.4022-.716895.2779-.656165.159-.586509.046-.50835-.06-.422138-.1595-.328354-.251-1.136938-1.4029-1.441006-1.6266-1.255678-1.2977-.209613-.3563-.107391-.4382.0015-.5119.116417-.5767.236881-.6323.362263-.6781.491951-.7142.625312-.7401.121572-.1296.05644-.066.117922-.1502.171966-.24.21823-.3347.256396-.4338.286178-.5367.307322-.6428.319606-.7517.322839-.8627.316867-.9752.301568-1.0888.276856-1.2026.242679-1.3162.199022-1.4289.145905-1.5401.08338-1.64922.0093-1.40901-1.866135-1.38558-1.957281-1.25353-1.31416.50831-1.51247.66278-1.388287.68255-1.265469.69279-1.144607.69363-1.026286.68532-.911073.66806-.799519.6421-.692161.6078-.589512.5654-.49207.5153-.400303.4578-.314664.3936-.235575.3227-.163432.2459-.0986.1636-.04144.076-.07805.1597-.470252.8471-.493362.7132-.505643.5792-.507138.4457-.497924.3133-.478119.1829-.447878.055-.407399-.07-1.658691-.7139-2.031848-.7706-1.714945-.5656-.351145-.218-.298768-.3381-.236593-.454-.164914-.5647-.08406-.6699.0056-.7688.103686-.8611.209751-.9459.04743-.1712.01943-.084.03462-.18782.04073-.29244.03768-.39779.02544-.50323.004-.60818-.02661-.71201-.06633-.81412-.115058-.91392-.172653-1.0108-.238948-1.1042-.313737-1.19352-.396784-1.27821-.487817-1.35772-.586531-1.4315-.692594-1.49905-.646592-1.25193-2.296292-.35963-2.315633-.20035-.927407 1.0608-1.031215 1.28975-.912069 1.24954-.798565 1.20152-.69115 1.14611-.590249 1.08376-.496256 1.01492-.409537.94012-.330429.85982-.259237.77459-.196235.68495-.141662.59146-.095729.49471-.058607.39524-.030436.29369-.011322.19061-.00133.0866.00507.17761-.022715.96862-.105386.8608-.178554.7479-.241933.6303-.295271.5088-.338356.3842-.371015.2568-.393113.1277-1.800459.1387-2.157218.2619-1.781338.2962-.412235-.03-.4217-.1606-.420455-.292-.408467-.4234-.385744-.5541-.352338-.6834-.308333-.8106-.25386-.93506-.03758-.17366-.02202-.0838-.05661-.18236-.09983-.27786-.151493-.36974-.211337-.45742-.279093-.54038-.354452-.61808-.437075-.69004-.526597-.75577-.622621-.81478-.724723-.86667-.832457-.91101-.945349-.94741-1.062903-.9755-1.1846-.99496-1.309906-1.00548-1.154326-.80803-2.200397.7487-2.1435.89872-.328198 1.37028-.313722 1.62125-.226906 1.53027-.148719 1.435-.07936 1.33603-.01899 1.23392.03225 1.12929.07427 1.02275.107.9149.130426.8064.144555.6977.149432.5895.145137.4825.131787.3772.109532.2742.07856.1741.03907.077.08703.1549.430028.8682.306731.8112.189439.7452.0787.6705-.02497.5878-.12108.4974-.209156.3998-.288771.2957-1.529763.9596-1.788395 1.2344-1.439648 1.0901-.378886.1652-.448027.054-.507996-.063-.558444-.1851-.599059-.3114-.629563-.4413-.649717-.5745-.659316-.7099-.113979-.1364-.05844-.064-.134871-.1352-.217531-.1996-.305965-.257-.399703-.3068-.49825-.3488-.60109-.3826-.707689-.4078-.817498-.4245-.929953-.4321-1.044474-.4306-1.160471-.4198-1.277346-.3996-1.39449-.3698-1.511292-.3305-1.627135-.2815-1.397618-.1791-1.600416 1.6855-1.480318 1.792.346198 1.3658.475642 1.5813.510237 1.4605.535197 1.3397.550613 1.2199.556614 1.1014.553363.985.541054.871.519916.7604.490211.6534.452229.5506.406292.4526.352754.3598.29199.2727.224409.1919.150434.1176.07053.05.149049.097.784256.569.64858.5757.514035.5718.381298.5571.251043.5321.123933.4967.000617.4512-.118273.396-.908618 1.5606-1.009872 1.9241-.768152 1.6343-.258739.3223-.371716.2558-.479161.1802-.580488.096h-.675137l-.762564-.098-.842257-.2067-.913731-.3223-.164267-.068-.08147-.029-.182237-.057-.285391-.076-.390345-.085-.496503-.086-.603263-.077-.710026-.059-.816179-.032h-.921122l-1.024244.049-1.124948.1041-1.222635.1676-1.316718.2399-1.406617.3206-1.491765.4097-1.571606.5068-1.320733.491-.6338 2.2362-.478012 2.2746.941284 1.0485 1.156041 1.1792 1.130493 1.056 1.096504.9376 1.054446.8242 1.004708.7166.94771.615.883894.5198.813726.4317.737694.3507.656302.2774.570077.2119.479559.1547.385301.1058.287876.066.187852.034.08583.012.176924.016.95882.1393.841848.2083.720871.2674.596547.3162.469551.3544.340555.3822.21025.3993.07932.4056-.07932 1.8041v2.173l.07932 1.8041-.07932.4056-.21025.3993-.340555.3822-.469551.3544-.596548.3162-.72087.2674-.841848.2084-.95882.1393-.176924.016-.08583.012-.187854.034-.287874.066-.385301.1058-.479559.1547-.570077.2119-.656302.2774-.737694.3507-.813726.4317-.883894.5198-.94771.615-1.004708.7166-1.054446.8242-1.096504.9376-1.130493 1.056-1.156041 1.1792-.941284 1.0485.478012 2.2746.6338 2.2362 1.320733.491 1.571606.5068 1.491765.4098 1.406617.3206 1.316718.2398 1.222635.1676 1.124948.1041 1.024244.049h.921122l.816179-.032.710026-.059.603263-.077.496503-.086.390345-.085.285393-.076.182236-.057.08146-.03.164268-.068.913731-.3223.842257-.2067.762564-.098h.675136l.580489.096.479161.1802.371716.2558.258739.3223.768152 1.6343 1.009872 1.9241.908618 1.5606.118273.396-.000617.4512-.123933.4967-.251044.5321-.381297.5571-.514035.5718-.64858.5758-.784256.5689-.149049.097-.07053.05-.150436.1176-.224407.1919-.29199.2727-.352754.3599-.406292.4525-.452229.5506-.490211.6534-.519916.7604-.541054.871-.553363.985-.556614 1.1014-.550613 1.2199-.535197 1.3397-.510237 1.4605-.475642 1.5813-.346198 1.3658 1.480318 1.792 1.600416 1.6855 1.397618-.1791 1.627135-.2815 1.511292-.3305 1.39449-.3698 1.277346-.3996 1.160471-.4198 1.044474-.4306.929953-.4321.817498-.4245.707689-.4078.60109-.3826.49825-.3488.399703-.3068.305966-.257.217531-.1996.13487-.1352.05844-.064.113979-.1363.659316-.71.649717-.5745.629563-.4413.599059-.3114.558444-.1851.507996-.063.448027.054.378886.1651 1.439648 1.0901 1.788395 1.2344 1.529763.9596.288771.2957.209156.3998.12108.4974.02497.5878-.0787.6705-.189439.7452-.306731.8112-.430028.8682-.08703.1549-.03908.077-.07856.1741-.109531.2742-.131787.3772-.145137.4825-.149432.5896-.144555.6976-.130426.8064-.107.9149-.07427 1.0227-.03225 1.1293.01899 1.2339.07936 1.3361.148719 1.435.226906 1.5302.313722 1.6213.328198 1.3703 2.1435.8987 2.200397.7487 1.154326-.808 1.309906-1.0055 1.1846-.995 1.062903-.9755.945349-.9474.832457-.911.724723-.8667.622621-.8148.526597-.7557.437075-.6901.354452-.618.279093-.5404.211337-.4574.151493-.3698.09983-.2778.05661-.1824.02202-.084.03758-.1736.25386-.9351.308333-.8106.352337-.6834.385745-.5541.408467-.4234.420455-.292.4217-.1605.412235-.03 1.781338.2962 2.157218.2619 1.800459.1387.393113.1277.371015.2568.338356.3842.295271.5088.241932.6303.178555.7479.105386.8608.022715.9686-.00507.1776.00133.087.011322.1907.030436.2936.058607.3953.095729.4947.141662.5915.196235.6849.259237.7746.330429.8598.409537.9401.496256 1.015.590249 1.0837.69115 1.1461.798565 1.2015.912069 1.2496 1.031215 1.2897.927407 1.0608 2.315633-.2003 2.296292-.3597.646592-1.2519.692594-1.499.586531-1.4315.487817-1.3578.396784-1.2782.313737-1.1935.238948-1.1042.172653-1.0108.115058-.9139.06633-.8141.02661-.712-.004-.6082-.02544-.5032-.03768-.3978-.04073-.2925-.03462-.1877-.01943-.084-.04743-.1712-.209752-.9459-.103685-.861-.0056-.7689.08406-.6699.164915-.5647.236593-.454.298768-.3381.351145-.218 1.714945-.5656 2.031848-.7706 1.658691-.7139.407399-.07.447878.055.478119.1829.497924.3133.507138.4457.505643.5792.493361.7132.470253.8472.07805.1596.04144.076.0986.1635.163432.2459.235574.3227.314664.3936.400303.4578.49207.5153.589512.5654.692161.6078.799519.6421.911073.6681 1.026286.6853 1.144607.6936 1.265469.6928 1.388287.6826 1.51247.6627 1.31416.5083 1.957281-1.2535 1.866135-1.3856-.0093-1.409-.08338-1.6492-.145905-1.5401-.199022-1.4289-.242679-1.3162-.276856-1.2026-.301568-1.0888-.316867-.9752-.322839-.8627-.319606-.7517-.307322-.6428-.286178-.5367-.256396-.4338-.21823-.3347-.171967-.24-.117921-.1502-.05644-.066-.121572-.1296-.625312-.74-.491951-.7143-.362264-.6781-.23688-.6323-.116417-.5766-.0015-.5119.107391-.4383.209613-.3562 1.255678-1.2978 1.441006-1.6266 1.136938-1.4029.328354-.251.422138-.1595.50835-.06.586509.046.656164.159.716896.2779.768313.4022.810062.5316.143287.1051.07205.048.163299.099.258987.1418.358574.1763.461514.2022.56724.2195.675176.2275.784738.2267.895326.2165 1.006342.197 1.117173.1682 1.227214.1298 1.335849.082 1.442469.025 1.546466-.041 1.647236-.116 1.399853-.1606z"/>
    

  </g>
</svg>
