<svg xmlns="http://www.w3.org/2000/svg" style="background-color: none  " stroke="none" fill="none" viewBox="0.05 18.24 97.89 99.32">
<path stroke="black" fill="none" stroke-width="0.1" stroke-opacity="0.7" d="M84.49, 101.29L83.47, 101.27L81.38, 101.09L79.49, 100.79L77.8, 100.39L76.31, 99.93L75.03, 99.44L73.96, 98.94L73.08, 98.45L72.39, 98L71.87, 97.61L71.53, 97.31L71.36, 97.14L71.29, 97.01L70.47, 95.79L69.61, 94.83L68.74, 94.12L67.89, 93.66L67.09, 93.44L66.37, 93.45L65.76, 93.68L64.46, 94.55L62.56, 95.65L61.17, 96.33L60.66, 96.75L60.29, 97.36L60.08, 98.17L60.06, 99.14L60.24, 100.24L60.64, 101.47L61.28, 102.79L61.36, 102.92L61.42, 103.14L61.51, 103.59L61.59, 104.23L61.64, 105.05L61.62, 106.06L61.52, 107.25L61.31, 108.6L60.96, 110.11L60.45, 111.77L59.77, 113.57L58.88, 115.47L58.39, 116.36L56.43, 116.77L54.45, 117.06L53.68, 116.39L52.2, 114.9L50.94, 113.45L49.9, 112.06L49.05, 110.76L48.39, 109.56L47.89, 108.48L47.53, 107.54L47.29, 106.75L47.15, 106.13L47.08, 105.67L47.06, 105.44L47.09, 105.29L47.24, 103.83L47.2, 102.54L46.99, 101.44L46.64, 100.54L46.17, 99.86L45.61, 99.4L44.99, 99.18L43.44, 99.02L41.28, 98.64L39.77, 98.26L39.11, 98.25L38.43, 98.49L37.76, 98.97L37.12, 99.69L36.54, 100.66L36.06, 101.86L35.71, 103.28L35.69, 103.43L35.59, 103.64L35.37, 104.04L35.02, 104.58L34.52, 105.24L33.86, 106L33.02, 106.85L31.99, 107.75L30.75, 108.68L29.3, 109.63L27.62, 110.56L25.72, 111.45L24.77, 111.82L23, 110.88L21.3, 109.82L21.14, 108.81L20.96, 106.72L20.93, 104.8L21.02, 103.07L21.22, 101.53L21.48, 100.18L21.79, 99.03L22.12, 98.08L22.44, 97.32L22.73, 96.75L22.97, 96.36L23.1, 96.17L23.22, 96.07L24.28, 95.05L25.08, 94.04L25.63, 93.06L25.93, 92.14L26.01, 91.32L25.88, 90.61L25.54, 90.04L24.46, 88.92L23.05, 87.24L22.14, 85.98L21.64, 85.56L20.96, 85.3L20.14, 85.24L19.18, 85.38L18.12, 85.75L16.98, 86.36L15.8, 87.22L15.68, 87.32L15.47, 87.42L15.04, 87.59L14.43, 87.77L13.63, 87.96L12.63, 88.12L11.45, 88.22L10.08, 88.25L8.52, 88.17L6.8, 87.96L4.92, 87.6L2.89, 87.06L1.92, 86.73L1.18, 84.87L0.55, 82.97L1.08, 82.09L2.29, 80.38L3.5, 78.89L4.68, 77.62L5.82, 76.56L6.89, 75.7L7.86, 75.02L8.73, 74.5L9.46, 74.13L10.05, 73.88L10.49, 73.73L10.72, 73.67L10.87, 73.67L12.33, 73.57L13.59, 73.31L14.64, 72.91L15.47, 72.4L16.06, 71.82L16.41, 71.19L16.52, 70.54L16.41, 68.99L16.41, 66.8L16.52, 65.24L16.41, 64.6L16.06, 63.97L15.47, 63.39L14.64, 62.88L13.59, 62.48L12.33, 62.22L10.86, 62.12L10.72, 62.12L10.49, 62.06L10.05, 61.91L9.46, 61.66L8.73, 61.28L7.86, 60.77L6.89, 60.09L5.82, 59.23L4.68, 58.17L3.5, 56.9L2.29, 55.41L1.08, 53.69L0.55, 52.82L1.18, 50.92L1.92, 49.06L2.89, 48.73L4.92, 48.19L6.8, 47.82L8.52, 47.62L10.08, 47.54L11.45, 47.56L12.63, 47.67L13.63, 47.83L14.43, 48.01L15.04, 48.2L15.47, 48.37L15.68, 48.47L15.8, 48.57L16.98, 49.43L18.12, 50.04L19.18, 50.41L20.14, 50.55L20.96, 50.49L21.64, 50.23L22.14, 49.81L23.05, 48.54L24.46, 46.87L25.54, 45.74L25.88, 45.18L26.01, 44.47L25.93, 43.65L25.63, 42.73L25.08, 41.75L24.28, 40.73L23.22, 39.72L23.1, 39.62L22.97, 39.43L22.73, 39.04L22.44, 38.46L22.12, 37.71L21.79, 36.76L21.48, 35.61L21.22, 34.26L21.02, 32.72L20.93, 30.99L20.96, 29.07L21.14, 26.98L21.3, 25.97L23, 24.91L24.76, 23.97L25.72, 24.33L27.62, 25.22L29.3, 26.16L30.75, 27.1L31.99, 28.04L33.02, 28.94L33.86, 29.78L34.52, 30.55L35.01, 31.2L35.36, 31.74L35.59, 32.15L35.69, 32.36L35.71, 32.51L36.06, 33.93L36.54, 35.13L37.12, 36.09L37.76, 36.82L38.43, 37.3L39.11, 37.54L39.77, 37.54L41.28, 37.16L43.44, 36.78L44.99, 36.62L45.6, 36.4L46.17, 35.94L46.63, 35.26L46.99, 34.36L47.2, 33.25L47.24, 31.96L47.08, 30.51L47.06, 30.36L47.08, 30.12L47.15, 29.67L47.29, 29.05L47.53, 28.26L47.89, 27.32L48.39, 26.24L49.05, 25.04L49.9, 23.73L50.94, 22.35L52.2, 20.9L53.68, 19.41L54.45, 18.74L56.43, 19.02L58.39, 19.43L58.88, 20.33L59.77, 22.23L60.45, 24.02L60.96, 25.68L61.31, 27.2L61.52, 28.55L61.62, 29.74L61.63, 30.74L61.59, 31.57L61.51, 32.2L61.42, 32.65L61.36, 32.88L61.28, 33.01L60.64, 34.33L60.24, 35.55L60.06, 36.66L60.08, 37.63L60.29, 38.43L60.66, 39.05L61.16, 39.47L62.56, 40.15L64.46, 41.25L65.76, 42.12L66.37, 42.35L67.09, 42.36L67.89, 42.14L68.74, 41.67L69.61, 40.97L70.47, 40L71.29, 38.79L71.36, 38.65L71.53, 38.49L71.87, 38.19L72.39, 37.8L73.07, 37.35L73.96, 36.86L75.03, 36.35L76.31, 35.86L77.8, 35.4L79.49, 35.01L81.38, 34.71L83.47, 34.52L84.49, 34.5L85.83, 36L87.07, 37.57L86.87, 38.57L86.32, 40.6L85.7, 42.41L85.01, 44.01L84.31, 45.39L83.6, 46.57L82.92, 47.54L82.28, 48.32L81.72, 48.92L81.25, 49.36L80.89, 49.65L80.7, 49.78L80.56, 49.83L79.22, 50.43L78.12, 51.11L77.27, 51.84L76.67, 52.6L76.31, 53.35L76.19, 54.06L76.31, 54.7L76.95, 56.13L77.7, 58.19L78.13, 59.68L78.45, 60.25L78.99, 60.72L79.75, 61.07L80.7, 61.26L81.82, 61.28L83.1, 61.09L84.51, 60.69L84.65, 60.63L84.88, 60.61L85.34, 60.6L85.98, 60.63L86.8, 60.73L87.79, 60.92L88.94, 61.23L90.24, 61.67L91.67, 62.28L93.21, 63.06L94.86, 64.05L96.58, 65.25L97.38, 65.89L97.44, 67.89L97.38, 69.9L96.58, 70.54L94.86, 71.74L93.21, 72.72L91.67, 73.51L90.23, 74.11L88.94, 74.56L87.79, 74.87L86.8, 75.06L85.98, 75.15L85.34, 75.19L84.88, 75.18L84.65, 75.16L84.51, 75.1L83.1, 74.7L81.82, 74.51L80.7, 74.53L79.75, 74.72L78.99, 75.07L78.45, 75.54L78.13, 76.11L77.7, 77.61L76.95, 79.67L76.31, 81.09L76.19, 81.73L76.31, 82.44L76.67, 83.19L77.27, 83.95L78.12, 84.68L79.22, 85.36L80.56, 85.96L80.7, 86.01L80.89, 86.14L81.25, 86.43L81.72, 86.87L82.28, 87.47L82.92, 88.25L83.6, 89.22L84.31, 90.4L85.02, 91.78L85.7, 93.38L86.32, 95.19L86.87, 97.22L87.07, 98.22L85.83, 99.79L84.49, 101.29"/>
</svg>