<svg xmlns="http://www.w3.org/2000/svg" fill="#000" fill-rule="evenodd" stroke="#000" stroke-width="0.1" stroke-opacity="0.5" stroke-linecap="round" stroke-linejoin="round" viewBox="0 10 64 44"><g fill="#000" stroke="#aaa"><path d="M.5 10.5h10v3H.5z"/><path d="M10.5 10.5h10v3h-10z"/><path d="M20.5 10.5h10v3h-10z"/><path d="M30.5 10.5h10v3h-10z"/><path d="M40.5 10.5h10v3h-10z"/><path d="M50.5 10.5h10v3h-10z"/><path d="M60.5 10.5h3v3h-3zm0 10h3v10h-3z"/><path d="M60.5 30.5h3v10h-3z"/><path d="M60.5 40.5h3v13h-3zm0-27h3v7h-3z"/></g><path fill="none" stroke="#aaa" d="M.5 13.5h60v40H.5z"/></svg>