<svg xmlns="http://www.w3.org/2000/svg" fill="#fff" fill-rule="evenodd" stroke="#000" stroke-width="0.1" stroke-opacity="0.2" stroke-linecap="round" stroke-linejoin="round" viewBox="7 0 50 64"><g fill="#fff" stroke="#464646"><path d="M7.5.5h10v3h-10z"/><path d="M17.5.5h10v3h-10z"/><path d="M27.5.5h10v3h-10z"/><path d="M37.5.5h10v3h-10zm16 0h3v3h-3zm0 10h3v10h-3z"/><path d="M53.5 20.5h3v10h-3zm0 30h3v13h-3zm-46 7h5v6h-5z"/><path d="M12.5 57.5h13v6h-13z"/><path d="M25.5 57.5h5v3h-5z"/><path d="M25.5 60.5h5v3h-5z"/><path d="M30.5 60.5h10v3h-10z"/><path d="M30.5 57.5h10v3h-10z"/><path d="M40.5 57.5h13v6h-13z"/></g><path fill="none" stroke="#464646" d="M7.5 3.5h46v54h-46z"/><g fill="#fff"><path stroke="#464646" d="M53.5 30.5h3v10h-3z"/><path stroke="#464646" d="M53.5 40.5h3v10h-3zm-6-40h6v3h-6z"/><path stroke="#464646" d="M53.5 3.5h3v7h-3z"/></g></svg>